<?xml version="1.0" standalone="no"?>
<!DOCTYPE svg PUBLIC "-//W3C//DTD SVG 20010904//EN"
 "http://www.w3.org/TR/2001/REC-SVG-20010904/DTD/svg10.dtd">
<svg version="1.0" xmlns="http://www.w3.org/2000/svg"
 width="286.000000pt" height="286.000000pt" viewBox="0 0 286.000000 286.000000"
 preserveAspectRatio="xMidYMid meet">
<metadata>
Created by potrace 1.11, written by Peter Selinger 2001-2013
</metadata>
<g transform="translate(0.000000,286.000000) scale(0.100000,-0.100000)"
fill="#000000" stroke="none">
<path d="M1571 2680 c-62 -39 -116 -70 -119 -70 -3 0 25 23 62 51 64 48 81 78
40 71 -55 -10 -264 -161 -366 -265 -53 -53 -68 -75 -68 -97 0 -20 -8 -35 -25
-46 -31 -20 -42 -58 -24 -80 7 -9 18 -26 24 -38 8 -16 19 -20 43 -19 30 3 29
1 -48 -76 -44 -43 -80 -85 -80 -93 0 -9 16 -28 36 -43 l36 -28 69 36 c61 32
71 35 96 24 16 -7 28 -18 29 -24 1 -7 2 -18 3 -24 0 -7 16 -10 40 -7 33 3 37
1 28 -13 -15 -24 -1 -49 28 -49 13 0 48 9 77 20 34 13 56 16 62 10 6 -6 18
-10 28 -10 21 0 322 148 326 161 2 5 -4 12 -12 15 -13 5 -14 10 -5 20 12 15 4
34 -15 34 -7 0 -39 -11 -72 -24 -54 -22 -87 -26 -55 -7 69 43 161 119 161 134
0 28 -24 30 -70 7 -42 -21 -70 -22 -30 0 28 15 24 56 -6 53 -11 -1 -64 -23
-118 -48 -54 -25 -100 -45 -101 -43 -2 2 39 35 91 73 51 39 96 79 100 90 3 11
17 32 31 47 31 32 27 62 -8 66 -29 3 -105 -34 -226 -113 -46 -31 -82 -51 -79
-46 5 8 199 168 307 253 32 25 33 27 17 44 -17 18 -20 17 -75 -11 -82 -42 -83
-42 -32 -2 36 28 48 44 52 73 6 38 -5 64 -27 64 -6 0 -62 -32 -125 -70z"/>
<path d="M510 1770 c-20 -20 -20 -33 -20 -800 0 -767 0 -780 20 -800 20 -20
33 -20 930 -20 897 0 910 0 930 20 20 20 20 33 20 800 0 767 0 780 -20 800
-20 20 -33 20 -930 20 -897 0 -910 0 -930 -20z m1855 -800 l0 -795 -925 0
-925 0 -3 785 c-1 432 0 791 3 798 3 10 194 12 927 10 l923 -3 0 -795z"/>
<path d="M2002 1669 c-64 -32 -95 -79 -100 -150 -7 -90 23 -140 170 -290 148
-151 183 -213 176 -310 -8 -110 -93 -189 -205 -189 -63 0 -112 18 -149 55 -19
19 -29 24 -38 15 -16 -16 3 -40 58 -74 87 -55 208 -46 286 21 61 53 84 104 85
188 0 105 -30 158 -180 314 -68 70 -133 147 -145 171 -55 108 -3 217 109 228
38 3 53 -1 85 -23 37 -25 66 -27 66 -5 0 5 -18 22 -40 36 -56 37 -122 42 -178
13z"/>
<path d="M590 1650 c0 -18 8 -20 160 -22 l160 -3 -49 -68 c-147 -202 -246
-483 -267 -759 l-7 -88 212 0 c181 0 211 2 211 15 0 13 -27 15 -185 15 -161 0
-186 2 -192 16 -9 25 16 208 43 314 45 173 137 364 241 499 26 35 54 71 62 82
13 19 8 19 -188 19 -193 0 -201 -1 -201 -20z"/>
<path d="M1080 1190 l0 -480 100 0 c81 0 100 3 100 15 0 11 -18 15 -77 17
l-78 3 -3 287 -2 287 77 3 c64 2 78 6 81 20 3 15 -7 18 -75 20 l-78 3 -3 132
-3 132 78 3 c61 2 78 6 78 18 0 12 -19 16 -97 18 l-98 3 0 -481z"/>
<path d="M1350 1190 l0 -480 95 0 c78 0 95 3 95 15 0 12 -15 15 -75 15 l-75 0
0 290 0 290 75 0 c68 0 75 2 75 20 0 18 -7 20 -75 20 l-75 0 0 135 0 135 75 0
c68 0 75 2 75 20 0 19 -7 20 -95 20 l-95 0 0 -480z"/>
<path d="M1617 1663 c-4 -3 -7 -42 -7 -85 0 -76 1 -79 22 -76 17 2 24 14 35
63 7 33 15 70 18 83 5 19 2 22 -28 22 -19 0 -37 -3 -40 -7z"/>
<path d="M592 418 c1 -95 3 -149 5 -121 4 51 5 53 49 72 44 20 74 63 74 107 0
35 -34 87 -66 100 -66 28 -64 32 -62 -158z m101 99 c23 -46 17 -79 -23 -119
-51 -50 -65 -37 -68 66 -4 115 -2 120 40 103 21 -8 40 -26 51 -50z"/>
<path d="M845 576 c-17 -7 -45 -29 -62 -49 -57 -65 -56 -151 3 -217 69 -76
168 -79 240 -6 67 67 72 154 11 223 -52 60 -125 78 -192 49z m107 -6 c114 -32
150 -176 66 -259 -63 -62 -156 -61 -217 1 -94 96 -32 256 104 267 6 1 27 -4
47 -9z"/>
<path d="M1112 418 c1 -95 3 -148 5 -117 3 47 8 58 24 62 16 4 25 -6 50 -55
17 -33 32 -58 35 -55 3 2 -7 30 -22 60 l-27 55 26 32 c49 57 33 141 -33 175
-61 31 -60 32 -58 -157z m81 121 c40 -43 37 -91 -7 -135 -58 -58 -66 -50 -66
72 0 105 0 105 23 99 12 -4 34 -20 50 -36z"/>
<path d="M1250 581 l25 -7 5 -164 6 -165 2 167 2 167 28 4 c15 2 0 4 -33 5
-39 0 -51 -2 -35 -7z"/>
<path d="M1360 420 c0 -107 4 -170 10 -170 6 0 10 43 10 109 l0 110 28 4 27 4
-27 2 c-27 1 -28 4 -28 50 0 46 2 50 28 54 22 3 20 4 -10 6 l-38 1 0 -170z"/>
<path d="M1552 573 c-72 -35 -114 -124 -93 -195 23 -75 90 -128 164 -128 84 0
167 84 167 170 0 118 -134 205 -238 153z m151 -19 c61 -32 90 -118 62 -189
-41 -108 -174 -134 -255 -50 -33 34 -35 40 -35 105 0 65 2 71 35 105 54 56
121 66 193 29z"/>
<path d="M1822 423 l-2 -173 38 2 c36 1 36 1 5 5 l-33 4 -3 167 -3 167 -2
-172z"/>
<path d="M1914 420 c0 -96 2 -136 3 -87 2 48 2 126 0 175 -1 48 -3 8 -3 -88z"/>
<path d="M2055 576 c-42 -18 -93 -79 -101 -121 -11 -60 4 -106 50 -151 46 -46
91 -61 153 -49 50 9 119 78 128 128 11 55 -2 103 -38 144 -52 60 -125 78 -192
49z m107 -6 c77 -22 129 -111 109 -188 -32 -115 -176 -155 -260 -71 -94 94
-31 257 104 268 6 1 26 -4 47 -9z"/>
<path d="M590 105 l0 -25 851 0 850 0 -3 23 -3 22 -847 3 -848 2 0 -25z"/>
</g>
</svg>
