<?xml version="1.0" standalone="no"?>
<!DOCTYPE svg PUBLIC "-//W3C//DTD SVG 1.1//EN" "http://www.w3.org/Graphics/SVG/1.1/DTD/svg11.dtd" >
<svg xmlns="http://www.w3.org/2000/svg" xmlns:xlink="http://www.w3.org/1999/xlink" version="1.1">
<metadata></metadata>
<defs>
<font id="procopiusregular" horiz-adv-x="1947" >
<font-face units-per-em="2048" ascent="1638" descent="-410" />
<missing-glyph horiz-adv-x="505" />
<glyph horiz-adv-x="0" />
<glyph unicode="&#xd;" horiz-adv-x="505" />
<glyph unicode=" "  horiz-adv-x="505" />
<glyph unicode="&#x09;" horiz-adv-x="505" />
<glyph unicode="&#xa0;" horiz-adv-x="505" />
<glyph unicode="!" horiz-adv-x="622" d="M186 -27l9 185l172 37l-15 -183zM219 1413l217 47q-61 -438 -61 -1124l-154 -37q0 127 11.5 386t11.5 388q0 188 -25 340z" />
<glyph unicode="&#x22;" horiz-adv-x="657" d="M123 1065v410h133v-410h-133zM403 1065v410h134v-410h-134z" />
<glyph unicode="#" horiz-adv-x="1026" d="M59 397v125h203l33 260h-184v125h202l56 408h120l-55 -408h228l55 410h121l-58 -410h185v-125h-203l-33 -260h184v-125h-202l-56 -407h-120l55 407h-228l-55 -409h-121l58 409h-185zM381 522h225l37 260h-227z" />
<glyph unicode="$" horiz-adv-x="1024" d="M55 74q82 39 183 127q119 -115 251 -115q16 139 17 256v295q-223 96 -275 135q-119 92 -118 270q0 152 123 269q100 94 264 149q0 176 10 223q72 27 149 74q-47 -162 -47 -272q45 14 107 14q111 0 248 -86l-133 -94q-111 80 -232 80v-578q172 -70 240 -127 q111 -90 110 -235q1 -324 -372 -457v-250q-94 -12 -158 -86l-14 8q37 102 69 299q-66 -12 -102 -12q-129 0 -320 113zM330 1116q0 -180 176 -266v534q-82 -25 -129 -101.5t-47 -166.5zM586 98q174 0 174 238q0 202 -164 270z" />
<glyph unicode="%" horiz-adv-x="1675" d="M39 872q0 498 344 498q152 0 227 -133q60 -106 60 -272q0 -199 -76 -355q-94 -197 -270 -196q-25 0 -103 49q-182 115 -182 409zM184 887q0 -131 43 -250q57 -162 166 -162q63 45 107 184q37 118 37 218q0 348 -175 442q-111 -94 -147 -191q-31 -84 -31 -241zM475 -51 q303 713 574 1433h135q-250 -526 -574 -1433h-135zM1006 422q0 496 344 496q152 0 227 -134q59 -104 59 -270q0 -199 -75 -354q-94 -199 -271 -199q-25 0 -102 49q-182 117 -182 412zM1151 436q0 -131 43 -250q57 -162 168 -161q61 45 104 184q37 119 37 217q0 346 -174 442 q-109 -92 -147 -192q-31 -84 -31 -240z" />
<glyph unicode="&#x26;" horiz-adv-x="837" d="M18 229q0 125 68 234q45 76 158 186q-102 186 -103 307q0 80 93.5 182.5t171.5 102.5q68 0 133 -76.5t65 -146.5q0 -129 -207 -311q59 -139 232 -377q43 57 55 100q41 -14 100 -6q-25 -76 -98 -166q47 -47 133 -143q-80 -61 -100 -127q-47 43 -133 137 q-162 -150 -205 -150q-106 0 -227 74q-135 80 -136 180zM164 365q0 -100 88 -166q78 -61 182 -62q57 0 101 62q-68 82 -261 376q-110 -112 -110 -210zM297 979q0 -102 59 -211q105 127 105 229q0 143 -70 144q-47 0 -74 -60q-20 -47 -20 -102z" />
<glyph unicode="'" horiz-adv-x="509" d="M190 1065v410h132v-410h-132z" />
<glyph unicode="(" horiz-adv-x="548" d="M90 604q0 514 223 895l144 -78q-233 -416 -234 -854q1 -367 148 -676l-76 -96q-205 309 -205 809z" />
<glyph unicode=")" horiz-adv-x="546" d="M90 -127q233 416 234 854q0 367 -148 676l76 96q205 -309 205 -809q-1 -514 -224 -895z" />
<glyph unicode="*" horiz-adv-x="802" d="M31 948q37 23 139 66q90 41 135 71q-90 47 -270 138q10 74 82 123q20 -12 227 -179v41q0 164 -20 260q123 10 153 11q-12 -102 -26 -310l227 205q43 -68 57 -121q-88 -43 -260 -139q88 -66 289 -158l8 -10q-6 -29 -29 -65q-25 -43 -45 -54q-143 125 -258 203 q0 -193 21 -280q-18 -14 -68 -27q-55 -12 -74 -23l-12 11l-2 20q0 49 15.5 147.5t15.5 147.5q-74 -66 -209 -207q-41 39 -57 60q-35 39 -39 69z" />
<glyph unicode="+" horiz-adv-x="1179" d="M82 442v152h436v453h144v-453h436v-152h-436v-452h-144v452h-436z" />
<glyph unicode="," horiz-adv-x="509" d="M76 -197l219 467l141 -14q-76 -143 -213 -438q-79 -1 -147 -15z" />
<glyph unicode="-" horiz-adv-x="581" d="M23 403q57 82 102 170q86 -6 217 -2q188 6 217 7q-66 -80 -113 -175q-278 0 -405 -18z" />
<glyph unicode="." horiz-adv-x="509" d="M129 184l176 176l78 -225l-166 -151z" />
<glyph unicode="/" horiz-adv-x="800" d="M-45 -14q156 281 364 690q174 350 351 698l176 29l-692 -1380q-33 -20 -199 -37z" />
<glyph unicode="0" horiz-adv-x="1024" d="M61 567q0 176 41 371q57 262 160 315q23 12 172 54q125 35 129 34q203 0 311 -198q88 -162 89 -383q0 -272 -107 -500q-135 -287 -375 -287q-186 0 -313 213q-107 182 -107 381zM256 659q0 -565 305 -622q207 201 207 616q0 471 -244 625q-268 -183 -268 -619z" />
<glyph unicode="1" horiz-adv-x="1021" d="M221 934l37 133q272 53 506 293l-2 -6l37 -15q0 -174 -14.5 -523t-14.5 -523q0 -164 12 -262q-68 -14 -200 -58q0 154 10 464.5t10 463.5v209q-201 -125 -381 -176z" />
<glyph unicode="2" horiz-adv-x="1024" d="M78 0q129 154 258 307q147 178 242 322l-5 4q-43 -25 -124 -25q-145 0 -220 111q-65 96 -65 248q0 168 98 270t266 102q156 0 262.5 -99t106.5 -255q0 -178 -190 -450q-63 -94 -316 -398q39 0 121 -3t123 -3q180 0 311 35v-178q-219 31 -436 30q-254 0 -420 -30zM346 956 q0 -285 160 -284q111 0 178 127q57 104 57 227q0 100 -43 170q-51 82 -145 82q-207 0 -207 -322z" />
<glyph unicode="3" horiz-adv-x="1021" d="M96 186q80 59 150 127q119 -213 346 -213q82 0 123 99q29 74 28 170q0 131 -92 200q-80 59 -211 60q-39 0 -82 -6q123 150 301 481h-514l117 174q96 -25 230 -25q127 0 395 37l16 -6l2 -6q-45 -109 -160 -260l-192 -242q162 0 266.5 -98t104.5 -258q0 -94 -41 -156 q-35 -53 -148 -166q-125 -125 -166 -131q-27 -4 -73 -4q-223 0 -400 223z" />
<glyph unicode="4" horiz-adv-x="1021" d="M104 270q254 463 267 486q147 281 237 499q111 27 193 60q0 -109 -5 -330t-5 -332q0 -16 4 -254h120v-133h-122v-254q-117 -27 -181 -49v301l-168 -2zM266 399h346l21 688z" />
<glyph unicode="5" horiz-adv-x="1021" d="M82 186q59 43 174 160q166 -258 317 -258q102 0 154 111q41 84 41 198q0 137 -66 230q-74 106 -206 106q-154 0 -301 -203l-19 13q18 154 21 364v-41l-2 406q66 -6 280 -6q68 0 201 6t198 6l25 -18q-31 -63 -39 -101q-57 0 -177 3t-177 3h-144q-4 -158 -4 -157l4 -238 q162 76 293 76q141 0 212 -82t71 -225q0 -190 -133 -375q-143 -201 -326 -201q-135 0 -397 223z" />
<glyph unicode="6" horiz-adv-x="1024" d="M96 463q0 227 90 364l336 514l211 21q-164 -213 -274 -426q207 53 239 53q90 0 166 -180q63 -152 64 -262q0 -203 -105 -381q-121 -205 -309 -205q-190 0 -309 162q-109 147 -109 340zM276 485q0 -141 66 -274q76 -158 201 -174q96 31 155 184q50 125 50 248 q0 111 -43 240q-51 156 -130 192q-84 0 -145 -18q-154 -145 -154 -398z" />
<glyph unicode="7" horiz-adv-x="1024" d="M70 1126l90 228q106 -27 329 -27q299 0 455 39l10 -29q-283 -561 -327 -655q-227 -487 -228 -637q-135 -20 -223 -72l-12 17q98 262 270 598q156 289 309 579q-78 10 -243 11q-213 0 -430 -52z" />
<glyph unicode="8" horiz-adv-x="1024" d="M109 336q0 129 69.5 215t194.5 104q-111 33 -179.5 124t-68.5 206q0 152 113.5 254t267.5 102q168 0 280 -96q119 -102 119 -268q0 -106 -59 -199q-63 -98 -162 -127q98 -33 164.5 -117.5t66.5 -187.5q0 -164 -114.5 -274.5t-278.5 -110.5q-172 0 -289 100 q-124 107 -124 275zM301 326q0 -113 49 -199q57 -102 164 -102q113 0 168 116q41 88 41 215q0 115 -47 189q-58 88 -164 88q-104 0 -164 -107q-47 -88 -47 -200zM317 1028q0 -117 50 -209q61 -111 168 -110q88 0 143 116q47 94 47 195q0 96 -49 178q-58 92 -148 92 q-92 0 -153 -88q-57 -78 -58 -174z" />
<glyph unicode="9" horiz-adv-x="1024" d="M96 831q0 258 180 392q160 119 433 118q100 0 168 -184q51 -145 51 -272q0 -168 -144 -457q-104 -213 -249 -426q-104 -12 -230 -49l-14 14q209 223 321 473q-147 -41 -182 -41q-147 0 -246 146q-88 130 -88 286zM276 897q0 -127 58 -260q70 -164 178 -164q68 0 139 41 q96 240 97 377q0 111 -46 227q-59 147 -151 148q-135 0 -211 -123q-64 -103 -64 -246z" />
<glyph unicode=":" horiz-adv-x="509" d="M127 172q80 61 164 141q39 -139 78 -204q-56 -40 -156 -144q-43 125 -86 207zM143 766q63 63 140 164q41 -98 102 -182q-47 -53 -131 -166q-33 63 -111 184z" />
<glyph unicode=";" horiz-adv-x="509" d="M94 -213q41 133 115 444l156 23q-80 -198 -146 -436zM203 358q37 123 49 213q113 0 166 13q-37 -115 -49 -213q-109 0 -166 -13z" />
<glyph unicode="&#x3c;" horiz-adv-x="1179" d="M82 446v144l1016 473v-156l-832 -389l832 -389v-156z" />
<glyph unicode="=" horiz-adv-x="1179" d="M82 231v152h1016v-152h-1016zM82 653v152h1016v-152h-1016z" />
<glyph unicode="&#x3e;" horiz-adv-x="1179" d="M82 -27v156l831 389l-831 389v156l1016 -473v-144z" />
<glyph unicode="?" horiz-adv-x="655" d="M154 1325l202 160q145 -143 146 -318q0 -94 -76 -269t-76 -269q0 -53 49 -123q12 -19 86 -105l-125 -122q-156 160 -155 307q0 88 76.5 254t76.5 252t-65 145q-31 27 -139 88zM262 -27l12 189l168 37l-12 -189z" />
<glyph unicode="@" horiz-adv-x="1572" d="M86 741q0 315 210 535.5t523 220.5q283 0 475.5 -176t192.5 -457q0 -209 -125 -385q-139 -197 -340 -196q-131 0 -129 125q-111 -125 -236 -125q-129 0 -208 98q-76 92 -76 225q0 211 116 375q131 182 332 182q153 1 221 -155l39 125h133q-51 -170 -104 -342 q-72 -248 -72 -324q0 -53 41 -53q131 0 215 159q72 133 72 277q0 240 -160 385q-154 137 -397 137q-266 0 -434 -186.5t-168 -454.5q0 -270 174 -451.5t442 -181.5q317 0 475 230h132q-94 -164 -256 -259.5t-349 -95.5q-319 0 -529 223.5t-210 544.5zM530 629q0 -84 39 -142 q43 -68 123 -67q125 0 213 151q74 131 74 267q0 72 -41 127q-47 61 -117 61q-125 0 -213 -139q-78 -125 -78 -258z" />
<glyph unicode="A" horiz-adv-x="1640" d="M-35 -14q109 217 449 735q301 459 422 752q98 0 176 12q23 -104 141 -355q137 -276 274 -555q164 -332 250 -563q-123 0 -209 -39l-358 746q-57 -31 -190 -31q-39 0 -110 3t-95 3q-152 0 -183 -55l-372 -653h-195zM621 776q0 -26 129 -26h10h14q221 0 318 32l-209 473 q-262 -416 -262 -479z" />
<glyph unicode="B" horiz-adv-x="1093" d="M70 -14v61h125l6 1350q-41 3 -71 3q-40 0 -60 -5v63q88 0 263 7t263 8q158 0 270 -74q131 -86 131 -236q0 -229 -323 -366q348 -176 348 -414q0 -223 -305 -326q-208 -71 -484 -71h-8h-155zM393 61q188 29 266 64q145 66 146 207q0 121 -55 186q-35 41 -129 90 q-104 53 -152 97q0 20 82 71q102 66 149 119q80 88 80 203q0 135 -89 217t-226 82h-53z" />
<glyph unicode="C" horiz-adv-x="1421" d="M53 676q0 350 133 502q115 129 457 237q266 82 354 82h3q209 0 366 -149l-125 -129q-76 72 -184 122q-117 55 -213 56q-262 0 -426 -209q-150 -190 -150 -459q0 -285 135 -450q145 -180 424 -181q285 0 488 193l35 -49q-299 -281 -684 -281q-301 0 -465 213 q-147 190 -148 502z" />
<glyph unicode="D" horiz-adv-x="1421" d="M49 1401v69q51 0 156.5 7.5t159.5 7.5q375 0 636 -103q369 -145 369 -460q0 -514 -418 -756q-334 -193 -886 -193v62h114q10 90 10 260v844l-6 262q-37 14 -71 14t-64 -14zM377 61q311 0 538.5 225.5t227.5 538.5q0 262 -240 426q-213 146 -489 146z" />
<glyph unicode="E" horiz-adv-x="1021" d="M82 -27q63 485 63 981q0 375 -41 531q72 0 216.5 -12.5t218.5 -12.5q164 0 344 37l10 -43l-121 -92q-100 10 -209 10q-6 0 -196 -6l-11 -549h297q164 0 273 37l8 -20l-129 -156q-61 14 -176 14h-283q0 -254 -31 -606h275q250 0 332 64l18 -29l-141 -148q-154 18 -297 19 q-72 0 -211 -9.5t-209 -9.5z" />
<glyph unicode="F" horiz-adv-x="985" d="M37 -51q53 522 53 1253q0 225 -27 307q94 0 285 -12t287 -12q119 0 305 24l10 -26l-116 -105q-119 18 -269 19q-143 0 -243 -13q-39 -207 -39 -393q0 -25 6 -176q153 -22 297 -22h12q94 0 223 18l17 -23l-105 -114q-66 0 -200 9t-201 9q-39 0 -50.5 -15t-11.5 -56v-648 q-74 0 -233 -24z" />
<glyph unicode="G" horiz-adv-x="1603" d="M53 731q0 336 314 563q285 207 630 207q209 0 420 -166l-180 -147q-195 188 -449 188q-258 0 -397 -196q-121 -170 -121 -441q0 -238 150 -430q158 -207 389 -207q272 0 412 217q118 182 118 469l209 43q-2 -109 -151 -559q-102 -297 -207 -596l-162 -38l-16 6l166 518 q-172 -96 -246 -127q-143 -59 -268 -60q-283 0 -455 244q-156 217 -156 512z" />
<glyph unicode="H" horiz-adv-x="1783" d="M129 -27q41 512 41 1024q0 199 -27 463l217 25q14 -621 15 -742h835q119 0 144 9q63 20 67 114l21 607l213 12q-39 -356 -39 -1002q0 -350 16 -485l-221 -25v715q-164 -43 -498 -43q-109 0 -293 5t-245 5l-19 -645z" />
<glyph unicode="I" horiz-adv-x="581" d="M164 -27q0 250 16.5 750t16.5 750l223 24q0 -199 -20 -597t-19 -597q0 -158 12 -305z" />
<glyph unicode="J" horiz-adv-x="544" d="M-29 -160l9 31q211 20 284.5 78.5t73.5 226.5q0 219 7 656.5t7 654.5l219 12q-18 -158 -18 -377l1 204q1 0 1 -583v-446q0 -184 -138.5 -336t-322.5 -172z" />
<glyph unicode="K" horiz-adv-x="1458" d="M57 1473q88 12 248 51q0 -86 6 -260t6 -260q0 -170 -16 -509t-16 -509q-145 0 -224 -13q39 440 39 897q0 381 -43 603zM338 713q293 252 412 364q223 213 368 408q110 0 260 39l6 -21q-154 -174 -397 -385q-211 -178 -424 -356q461 -479 836 -696q-96 -70 -166 -144 q-201 123 -475.5 366.5t-419.5 424.5z" />
<glyph unicode="L" horiz-adv-x="1093" d="M57 -27q49 479 49 928q0 100 -9 299t-9 297l256 37l-41 -1448h195q360 0 522 104l16 -14q-68 -129 -88 -203q-100 12 -338 13h-100q-188 0 -453 -13z" />
<glyph unicode="M" horiz-adv-x="2111" d="M100 -2q61 487 166 1462q94 12 185 37q227 -504 641 -1216q244 381 358 585q193 336 295 619l80 -6l84 6l102 -1487q-80 0 -203 -12l-79 1159q-115 -248 -304 -563q-10 -18 -335 -547l-125 6q-190 369 -562 1108q-4 -252 -38 -590q-35 -293 -68 -586q-74 25 -197 25z" />
<glyph unicode="N" horiz-adv-x="1748" d="M115 -51q0 180 20.5 542.5t20.5 544.5q0 290 -23 437l203 36q127 -205 336 -432q109 -117 389 -391q252 -246 381 -395l2 4q-12 166 -12 393q0 74 2 219v217q0 184 -9 324q92 18 185 49q0 -158 -10.5 -475t-10.5 -475q0 -211 2 -244q8 -145 41 -237l-162 -105 q-23 27 -585 600q-354 362 -566 623q0 -31 2.5 -97.5t2.5 -99.5q0 -166 -14 -495.5t-15 -493.5q-121 -29 -180 -49z" />
<glyph unicode="O" horiz-adv-x="1640" d="M63 666q0 444 232 645q219 186 676 186q262 0 438 -205q170 -195 170 -463q0 -383 -109 -546q-121 -180 -477 -277q-170 -45 -254 -45q-317 0 -496.5 193t-179.5 512zM268 688q0 -231 162 -424q170 -203 397 -203q268 0 416 211q131 184 131 465q0 217 -155 443 q-169 243 -371 243h-2q-61 0 -223 -88q-176 -94 -269 -272q-86 -166 -86 -375z" />
<glyph unicode="P" horiz-adv-x="1130" d="M68 1436v49q90 0 274 6t276 6q186 0 308 -84q137 -96 137 -274q0 -205 -197 -371q-188 -158 -397 -158l-57 64q195 0 315 98q131 106 131 295q0 96 -96 215q-59 72 -168 102q-63 16 -199 27q-51 -172 -51 -821q0 -135 8 -617q-104 -10 -207 -36q0 195 7.5 581.5 t7.5 581.5q0 29 -4 336h-88z" />
<glyph unicode="Q" horiz-adv-x="1710" d="M45 737q0 311 188 484q152 137 484 227q178 49 317 49q272 0 445 -242q153 -216 153 -497q0 -172 -53 -288t-178 -234q127 -96 266 -168l-143 -127q-100 39 -271 178q-100 -70 -262 -115q-154 -43 -284 -43q-303 0 -492 242q-170 223 -170 534zM274 717 q0 -244 188.5 -437.5t432.5 -193.5q168 0 279 90q-113 84 -246 143l166 127q139 -80 227 -147q47 55 76.5 145.5t29.5 167.5q0 285 -151 508q-170 252 -440 252q-266 0 -422 -201q-139 -182 -140 -454z" />
<glyph unicode="R" horiz-adv-x="1239" d="M-10 1411v62q335 24 429 24h7q217 0 358 -61q197 -86 197 -273q0 -129 -141 -297q-127 -150 -258 -219q375 -375 669 -565l-186 -133q-389 297 -727 682q180 39 289 135q127 113 127 285q0 176 -123 274q-115 92 -293 92q-37 -440 -37 -1419q-117 -12 -231 -12 q39 401 39 946v479h-119z" />
<glyph unicode="S" horiz-adv-x="946" d="M29 39l159 127q94 -80 224 -80q272 0 272 266q0 162 -164 254q-152 74 -305 148q-164 102 -164 288t195 332q180 135 372 135q131 0 297 -94l-141 -90q-154 84 -260 84q-102 0 -176 -92q-70 -84 -70 -191q0 -162 158 -252q145 -70 293 -137q158 -94 158 -268 q0 -195 -201 -356q-188 -152 -389 -152q-131 0 -258 78z" />
<glyph unicode="T" horiz-adv-x="1165" d="M-47 1397l70 112q39 -49 579 -49q424 0 608 49l4 -6q-20 -51 -71 -129q-63 0 -219 -6q-104 -4 -175 -4h-44v-1391q-57 12 -230 13q16 133 17 534q0 166 -13 844q-348 0 -526 33z" />
<glyph unicode="U" horiz-adv-x="1603" d="M33 1438q68 12 227 59q0 -598 70 -864q139 -522 565 -522q121 0 201 147q135 252 266 1227q117 -33 209 -33q-102 -598 -105 -604q-86 -393 -233 -602q-191 -273 -502 -273q-698 0 -698 1465z" />
<glyph unicode="V" horiz-adv-x="1564" d="M-57 1432l233 77q270 -666 604 -1292q94 201 320 621q217 403 317 622l205 49q-47 -150 -424 -778q-358 -600 -358 -631q0 -25 43 -86l-213 -53q-459 881 -727 1471z" />
<glyph unicode="W" horiz-adv-x="2150" d="M-43 1419l201 78q266 -518 434 -1335q33 125 141 350q147 303 174 371q86 209 86 342q82 6 185 39q55 -195 204 -557q154 -371 207 -555q61 238 219 667q169 453 228 666l155 -12q-145 -375 -293 -750q-207 -549 -207 -690q0 -8 1 -15q-100 -14 -238 -57 q-39 158 -209 543q-156 354 -180 508q-37 -145 -227 -518q-172 -344 -193 -496l-217 -25q-137 674 -471 1446z" />
<glyph unicode="X" horiz-adv-x="1490" d="M-10 1397q96 31 198 100q102 -166 285 -358q2 -4 322 -328q233 250 288 315q186 223 211 351q63 0 195 32q-27 -115 -275 -397q-49 -57 -346 -375q170 -170 340 -338q244 -246 295 -338q-133 -41 -205 -100q-186 233 -579 621q-141 -135 -283 -271q-176 -178 -235 -301 q-74 -8 -189 -49q10 84 84 172q31 37 140 139l403 381q-301 313 -342 359q-190 207 -307 385z" />
<glyph unicode="Y" horiz-adv-x="1458" d="M-55 1464q82 25 118 39q66 25 113 53q186 -315 600 -788q340 283 557 717q117 0 178 12q-305 -502 -673 -838q0 -51 -6.5 -156.5t-6.5 -158.5q0 -270 13 -367q-56 9 -112 9t-114 -9q0 68 4.5 204t4.5 204v195q0 -8 -9 49q-403 436 -667 835z" />
<glyph unicode="Z" horiz-adv-x="1273" d="M-16 -2l972 1360q-47 0 -144 -5t-146 -5q-180 0 -549 38v19l153 117q168 -61 547 -62q274 0 449 49l22 -10l-977 -1388q68 0 203 -6.5t203 -6.5q225 0 282 4q162 10 275 54l10 -25l-229 -145h-1049z" />
<glyph unicode="[" horiz-adv-x="583" d="M92 -219v1724l51 -6q160 0 351 19l-23 -121l-109 2l-110 -6q0 -111 -7 -335t-7 -337v-361q0 -78 5 -232.5t5 -231.5h67q-2 -2 -3 -1t5 1l33 2l123 8l-33 -117q-213 6 -221 6q-84 0 -127 -14z" />
<glyph unicode="\" horiz-adv-x="800" d="M-45 1374l149 29q375 -760 742 -1380l-172 -37z" />
<glyph unicode="]" horiz-adv-x="579" d="M90 -223l23 121l108 -2l111 6q0 113 7 336t7 335v361q0 78 -5 232.5t-5 232.5h-68q2 2 2 1t-4 -1l-33 -2l-122 -8l32 116q211 -6 222 -6q82 0 127 14v-1724q-51 6 -52 6q-160 0 -350 -18z" />
<glyph unicode="^" horiz-adv-x="1179" d="M96 479l424 885h139l426 -885h-153l-344 719l-338 -719h-154z" />
<glyph unicode="_" horiz-adv-x="983" d="M-10 -154h1003v-104h-1003v104z" />
<glyph unicode="`" horiz-adv-x="507" d="M72 1356l100 119q92 -127 264 -312l-65 -76z" />
<glyph unicode="a" horiz-adv-x="872" d="M31 295q0 137 105.5 235.5t242.5 98.5q61 0 182 -60v138q0 111 -37 164t-139 83q-43 -27 -78 -84q-104 0 -168 -20q35 68 113 112t156 44q219 0 284 -97q49 -74 49 -307v-536q33 0 101 -19v-39q-156 0 -281 -18l6 162q-133 -174 -235 -175q-127 0 -214 94.5t-87 223.5z M211 326q0 -82 53 -156q59 -80 139 -80q66 0 115 82q43 74 43 143q0 98 -39 168q-47 84 -139 84q-90 0 -135 -80q-37 -65 -37 -161z" />
<glyph unicode="b" horiz-adv-x="983" d="M27 1491v37l315 26l-20 -698q219 143 340 143q141 0 223 -122q73 -108 73 -255q0 -280 -127 -454q-143 -197 -407 -197q-43 0 -117 52q-104 72 -141 176q-27 80 -27 227q0 174 11.5 521t11.5 519zM313 479q0 -152 62 -256q78 -125 223 -125q61 0 119 199q49 168 49 264 q0 131 -53 219q-66 106 -187 107q-121 0 -176 -154q-37 -104 -37 -254z" />
<glyph unicode="c" horiz-adv-x="763" d="M31 561q0 156 64.5 248t207.5 152q113 45 148 45q139 0 284 -177l-141 -73q-45 51 -113 92q-78 45 -135 45q-66 0 -98 -117q-25 -82 -25 -170q0 -158 74 -309q88 -182 229 -182h2q84 0 179 73v-71q-66 -49 -158 -92q-104 -47 -170 -48q-147 0 -256 226q-92 190 -92 358z " />
<glyph unicode="d" horiz-adv-x="983" d="M29 518q0 186 75 281q63 76 250 155q104 45 131 45q74 0 158 -71q0 70 4 210t4 210q0 78 -32.5 107.5t-110.5 29.5l-8 37l331 26l-20 -1505l145 8l-24 -65q-68 4 -140.5 4t-148.5 -4q6 45 6 127q-43 -51 -108 -93q-76 -49 -131 -49q-66 0 -150 58q-231 156 -231 489z M221 580q0 -170 62 -312q78 -182 227 -182q74 0 106 195q23 121 23 258q0 141 -37 241q-53 145 -166 146q-100 0 -164 -129q-51 -106 -51 -217z" />
<glyph unicode="e" horiz-adv-x="837" d="M47 553q0 150 126 301.5t263 151.5q115 0 234 -99q121 -104 121 -217q-168 -88 -549 -246q18 -121 92 -217q83 -112 192 -112h2q78 0 201 106l35 -28q-197 -215 -311 -216q-205 0 -316 195q-90 160 -90 381zM227 612q0 -8 4 -104l238 102q117 51 117 78q0 66 -84 135.5 t-152 69.5q-53 0 -92 -117q-31 -92 -31 -164z" />
<glyph unicode="f" horiz-adv-x="548" d="M-18 874l47 101h55q6 117 16.5 229.5t55.5 181.5q53 84 178 152q63 35 102 35q66 0 131 -41l-82 -148q-84 61 -135 62q-49 0 -74 -121q-18 -84 -18 -164v-186h236l-48 -101h-188q0 -102 -8 -308t-8 -308q0 -129 14 -266q-131 0 -190 -21q20 133 20 375v528h-104z" />
<glyph unicode="g" horiz-adv-x="946" d="M43 -252l190 68q53 -98 101 -138q61 -47 162 -47q86 0 141 50.5t55 134.5q0 166 -207 166q-47 0 -135 -26t-133 -26q-47 0 -74.5 31t-27.5 78q0 61 61 113q51 43 119 59q-104 39 -168 145q-59 98 -59 215q0 139 65 228q53 74 186 147q114 64 156 64h2l426 -13v-24 l-180 -51q125 -121 125 -291q0 -195 -130 -323t-325 -128q-59 0 -97 -20.5t-38 -67.5q0 -74 68 -74q59 0 171.5 42t170.5 42q82 0 137 -71.5t55 -155.5q0 -158 -166 -242q-131 -65 -302 -65h-5q-242 0 -344 180zM236 690q0 -152 75 -266q82 -125 226 -154q68 41 106 127 q37 78 37 162q0 133 -78 225q-84 100 -213 101q-90 0 -125 -54q-28 -43 -28 -141z" />
<glyph unicode="h" horiz-adv-x="1054" d="M53 1473v36q145 0 326 52l-8 -250v-504q210 192 322 192h1q145 0 226 -147q65 -119 65 -272q0 -116 -33 -273q-29 -131 -59 -264l108 8v-65q-188 0 -309 -27q33 143 66 287q35 170 35 291q0 119 -50 213q-60 112 -168 112h-2q-113 0 -170 -137q-41 -102 -43 -236l-4 -491 l-192 -27q0 137 12 411.5t12 412.5v571q0 63 -38 86q-23 12 -97 21z" />
<glyph unicode="i" horiz-adv-x="507" d="M59 913l17 60q96 6 286 28q-30 -629 -30 -860v-14q0 -55 24 -55q25 0 95 16v-55q-219 -59 -273 -60q-35 0 -35 68q0 137 11.5 411.5t11.5 411.5q0 37 -39 47q-13 2 -68 2zM139 1212q25 53 45 158q58 -6 112 -6t105 6q0 -158 -92 -158h-170z" />
<glyph unicode="j" horiz-adv-x="507" d="M45 -369q131 59 168 324q14 98 18 397v-33l-2 525q0 71 -40 71h-1h-2q-19 0 -84 -22l31 72q156 14 287 41l-19 -803q-6 -281 -53 -393q-76 -174 -303 -234v55zM203 1217q23 53 43 157q58 -7 112 -7t105 7q0 -157 -90 -157h-170z" />
<glyph unicode="k" horiz-adv-x="909" d="M8 1473v36l318 39q-37 -446 -38 -1036q96 102 421 487l127 -98q-168 -152 -375 -360l442 -459l-141 -123q-117 133 -232 266q-135 152 -242 258q0 -32 1 -69q0 -148 6 -385q-94 -6 -193 -56q0 238 14.5 713t14.5 713q0 45 -43 61q-18 6 -80 13z" />
<glyph unicode="l" horiz-adv-x="507" d="M45 1448v37l305 51q0 -215 -22 -647t-23 -647q0 -113 60 -113q33 0 94 35l6 -47q-143 -74 -268 -158q-45 53 -58 78q-14 35 -14 96q0 178 18.5 536.5t18.5 536.5q0 20 2 58v55q0 129 -119 129z" />
<glyph unicode="m" horiz-adv-x="1564" d="M31 954v39q193 0 321 13l-6 -179q141 178 305 179q176 0 250 -177q125 176 289 177q143 0 213 -107q61 -90 61 -240q0 -160 -78 -593q33 0 150 6l-33 -88q-111 7 -218 7q-43 0 -85 -1q84 399 84 626q0 240 -225 240q-72 0 -111 -55q-65 -89 -65 -585q0 -95 2 -206 q-104 0 -201 -39q41 221 41 602q0 150 -33 205q-45 78 -182 78q-68 0 -104 -49q-74 -94 -74 -793q-98 0 -195 -37q39 279 39 523l-8 405z" />
<glyph unicode="n" horiz-adv-x="1056" d="M35 954v33q172 0 323 19l-6 -179q150 178 312 179q137 0 215 -103q73 -91 73 -229q0 -135 -28 -314q-27 -154 -52 -307l152 6l-43 -69h-303q82 422 82 606q0 258 -240 258q-184 0 -184 -555q0 -70 4 -168t4 -117q-94 0 -205 -37q37 219 37 617v147q0 98 -6 156z" />
<glyph unicode="o" horiz-adv-x="946" d="M57 471q0 362 322 490q115 45 178 45q168 0 256 -158q74 -129 74 -309q0 -209 -125 -377q-137 -184 -342 -185q-162 0 -268 173q-94 150 -95 321zM250 500q0 -143 69 -264q82 -145 213 -146q72 0 121 156q41 123 41 211q0 172 -43 284q-61 164 -205 164q-104 0 -157 -157 q-39 -115 -39 -248z" />
<glyph unicode="p" horiz-adv-x="946" d="M43 911v37q125 0 283 45l-4 -153l2 -4q147 174 274 174q150 0 233 -129q70 -111 70 -269q0 -211 -65 -338q-72 -139 -248 -239q-94 -53 -127 -53q-43 0 -150 104q0 -78 -10 -232.5t-10 -232.5q-63 -8 -187 -29q49 389 50 1061q0 147 -13 236zM334 403q0 -131 41 -200 q43 -76 160 -121q186 140 186 502q0 119 -55 202q-66 98 -183 99q-80 0 -121 -109q-28 -77 -28 -171v-7v-195z" />
<glyph unicode="q" horiz-adv-x="946" d="M80 549q0 162 59.5 250t206.5 151q139 59 199 60q82 0 170 -82l149 84q-41 -440 -41 -1385q-59 -12 -161 -45l-33 10l26 514q-179 -124 -224 -124h-1q-39 0 -131 61q-219 147 -219 506zM260 651q0 -186 53 -323q74 -197 230 -197q86 0 112 82q13 41 13 152v235 q0 162 -27 219q-43 90 -186 90q-113 0 -158 -75q-37 -59 -37 -183z" />
<glyph unicode="r" horiz-adv-x="620" d="M-12 942l10 33l313 6q-10 -102 -10 -203q27 86 76 148q63 80 137 80q70 -1 117 -62l-70 -145q-66 55 -110 55q-45 0 -97.5 -78t-52.5 -127q0 -94 -6 -323q-4 -205 -4 -324q-68 -2 -193 -25q0 94 10.5 281.5t10.5 282.5q0 254 -4 333q-2 41 -127 68z" />
<glyph unicode="s" horiz-adv-x="692" d="M23 80l151 131q121 -121 211 -121q113 0 113 100q0 84 -109 146q-197 111 -199 113q-106 86 -106 231q0 127 87 226.5t214 99.5q154 -1 285 -136l-135 -129q-133 139 -250 140q-41 0 -66.5 -27t-25.5 -68q0 -98 116 -172q109 -63 217 -127q117 -86 117 -211 q0 -127 -105.5 -213t-236.5 -86q-160 0 -278 103z" />
<glyph unicode="t" horiz-adv-x="546" d="M14 877l68 100h74l8 330l188 67l-24 -397h24q113 0 180 14l-45 -106q-80 -8 -136 -8h-21q0 -92 -4 -278.5t-4 -281.5v-110q6 -63 38 -103l134 64v-62l-258 -145q-25 41 -68 123q-27 63 -27 250q0 74 5.5 202t5.5 158v183h-138z" />
<glyph unicode="u" horiz-adv-x="983" d="M59 926l41 71q66 -4 132 -4t130 4q-28 -299 -28 -553v-18q0 -115 65 -197q70 -88 183 -88q151 0 151 518v7q0 -6 -10 331q53 -4 104 -4t99 4q0 -168 -17 -503.5t-16 -503.5h-184l8 170q-66 -102 -180 -183q-160 0 -266.5 104.5t-106.5 264.5q0 281 8 578q-30 7 -61 7 q-26 0 -52 -5z" />
<glyph unicode="v" horiz-adv-x="983" d="M-14 969q106 0 215 37q43 -135 151 -377q115 -254 156 -377q137 334 369 754q39 -29 120 -66q-143 -207 -260 -451q-144 -296 -144 -455q0 -10 1 -20l-143 -37q-199 451 -222 500q-131 285 -243 492z" />
<glyph unicode="w" horiz-adv-x="1564" d="M-23 963q133 18 222 55q35 -137 116 -383q88 -260 121 -381h2q143 319 148 328q100 238 100 321q84 0 193 35q0 -106 96 -344q115 -283 131 -354q43 152 162 387q143 281 180 379q63 -45 139 -76q-129 -199 -260 -463q-168 -336 -168 -473q-92 0 -168 -29 q-39 182 -235 723q-78 -170 -154 -340q-96 -225 -96 -346l-170 -25q0 141 -141 494q-45 111 -218 492z" />
<glyph unicode="x" horiz-adv-x="909" d="M-25 14q129 147 406 486q-152 205 -336 432l199 76q133 -209 254 -369l274 367l129 -74l-330 -389q184 -238 363 -482l-170 -84l-299 424q-195 -227 -338 -424z" />
<glyph unicode="y" horiz-adv-x="946" d="M-31 -375l56 76q72 -33 102 -33q76 0 166 172l110 246q-213 447 -397 885l180 41q100 -309 306 -738q102 246 303 738l180 -49q-158 -360 -318 -719q-246 -553 -352 -613q-72 -39 -168 -39q-92 0 -168 33z" />
<glyph unicode="z" horiz-adv-x="763" d="M14 2l471 860q-39 0 -121.5 3t-123.5 3q-76 0 -177 -28l-16 14l82 139q215 -21 445 -21q87 0 176 3q-127 -219 -254 -436q-143 -254 -228 -453q25 0 75 -4t75 -4q160 0 284 33l17 -17l-72 -117q-68 12 -274 13h-125q-123 0 -217 -13z" />
<glyph unicode="{" horiz-adv-x="657" d="M80 584v127q131 0 153 204q10 188 23 379q33 205 195 205h129v-125h-101q-82 0 -89 -170t-13 -336q-29 -190 -154 -219q123 -45 154 -207q10 -57 10 -276q0 -164 16 -193q32 -53 177 -53v-125h-129q-162 0 -195 205q-12 190 -23 379q-23 205 -153 205z" />
<glyph unicode="|" horiz-adv-x="436" d="M147 -29v1598h144v-1598h-144z" />
<glyph unicode="}" horiz-adv-x="657" d="M80 -80h100q80 0 87 170t14 336q29 190 155 219q-104 37 -143 158q-27 84 -27 241v60q2 39 2 57q0 106 -14 152q-20 61 -74 61h-100v125h129q160 0 192 -205q12 -190 25 -379q20 -205 154 -204v-127q-133 0 -154 -205q-12 -188 -25 -379q-33 -205 -192 -205h-129v125z " />
<glyph unicode="~" horiz-adv-x="1179" d="M127 483q90 178 242 179q80 0 228 -70t200 -70q102 0 184 150l72 -127q-109 -176 -248 -176q-78 0 -219.5 71.5t-220.5 71.5q-102 0 -166 -156z" />
<glyph unicode="&#xa2;" horiz-adv-x="1024" d="M160 563q0 186 86 281q66 70 256 149l8 211l127 49q-35 -127 -35 -247q123 0 262 -177l-143 -71q-74 76 -137 102q0 -121 -11.5 -364.5t-11.5 -364.5q51 -23 98 -22q68 0 172 71v-69q-139 -109 -270 -134v-237q-63 -6 -127 -62q41 106 41 299q-147 57 -237 246 q-78 166 -78 340zM352 602q0 -227 131 -393q0 113 8.5 340t8.5 340l-23 4q-63 0 -98 -119q-27 -86 -27 -172z" />
<glyph unicode="&#xa3;" horiz-adv-x="1024" d="M-92 702q25 29 63 132q35 0 109 -2.5t110 -2.5q0 217 41 324q51 131 207 250q123 94 215 94q90 0 201 -49q37 -16 184 -98l-147 -164q-233 186 -352 186q-115 0 -146 -227q-6 -43 -12 -316h172q121 0 199 15q-37 -84 -75 -113t-99 -29q-25 0 -92.5 6.5t-114.5 8.5 q0 -365 -76 -619h430q217 0 377 66l14 -39q-18 -8 -137 -78q-104 -61 -123 -61q-10 0 -156.5 5t-248.5 5q-311 0 -367 -41l-25 18q80 61 109 349q10 201 22 399q-104 8 -102 8q-123 0 -174 -35z" />
<glyph unicode="&#xa6;" horiz-adv-x="436" d="M147 -29v592h144v-592h-144zM147 977v592h144v-592h-144z" />
<glyph unicode="&#xa7;" horiz-adv-x="1019" d="M-16 -352l194 141q51 -29 141.5 -52.5t147.5 -23.5q127 0 184.5 48.5t57.5 172.5q0 127 -164 224q-154 80 -305 161q-164 111 -164 273q0 178 200 354q-29 86 -28 215q0 147 133 248q123 92 276 92q188 0 332 -110l-141 -123q-164 145 -293 145q-115 0 -115 -190 q0 -186 154 -305q143 -84 287 -168q156 -98 155 -242q0 -82 -53 -176q-14 -25 -104 -154q23 -70 22 -127q0 -178 -199 -332q-184 -143 -368 -143q-221 0 -350 72zM209 723q0 -104 125 -203q76 -59 260 -151q178 -90 225 -131q96 66 96 143q0 96 -129 186q-12 8 -258 148 q-155 88 -192 162q-127 -49 -127 -154z" />
<glyph unicode="&#xa8;" horiz-adv-x="507" d="M-74 1202q41 72 41 76q23 43 31 80q104 -8 229 0l-63 -156h-238zM283 1202l55 156q117 -8 246 0q-16 -96 -33 -119q-27 -37 -113 -37h-155z" />
<glyph unicode="&#xa9;" horiz-adv-x="1572" d="M53 735q0 315 210 538.5t523 223.5t527 -225q207 -221 207 -537q0 -315 -207 -536q-213 -225 -527 -226q-313 0 -523 223.5t-210 538.5zM199 735q0 -254 166 -442q171 -195 421 -195t422 195q166 188 166 442t-166 443q-172 195 -422 194q-250 0 -418.5 -191.5 t-168.5 -445.5zM360 733q0 203 114 333t312 130q150 0 247 -83t116 -230h-129q-18 86 -83 137t-153 51q-135 0 -211 -102q-68 -92 -67 -234q0 -137 72 -235q78 -109 210 -109q90 0 155 55.5t77 143.5h131q-27 -143 -121 -232q-100 -94 -242 -94q-197 0 -312.5 135.5 t-115.5 333.5z" />
<glyph unicode="&#xad;" horiz-adv-x="581" d="M23 403q57 82 102 170q86 -6 217 -2q188 6 217 7q-66 -80 -113 -175q-278 0 -405 -18z" />
<glyph unicode="&#xae;" horiz-adv-x="1572" d="M53 735q0 315 210 538.5t523 223.5t527 -225q207 -221 207 -537q0 -315 -207 -536q-213 -225 -527 -226q-313 0 -523 223.5t-210 538.5zM199 735q0 -254 166 -442q171 -195 421 -195t422 195q166 188 166 442t-166 443q-172 195 -422 194q-250 0 -418.5 -191.5 t-168.5 -445.5zM506 293v874h325q295 0 295 -249q0 -213 -217 -242l234 -383h-142l-223 377h-141v-377h-131zM637 782h149q100 0 144 23q63 31 63 121q0 129 -184 129h-172v-273z" />
<glyph unicode="&#xb0;" horiz-adv-x="786" d="M106 1063q0 125 82 212t205 87q125 0 206 -87t81 -212t-81 -212t-206 -87q-123 0 -205 87t-82 212zM178 1063q0 -92 61.5 -157.5t153.5 -65.5t153.5 65.5t61.5 157.5t-61.5 157.5t-153.5 65.5t-153.5 -65.5t-61.5 -157.5z" />
<glyph unicode="&#xb2;" horiz-adv-x="663" d="M47 541q51 76 160 192q125 133 168 189l-10 2q-41 -18 -82 -19q-88 0 -140 76q-45 63 -45 158q0 104 69 164.5t173 60.5q109 0 178 -51q80 -57 80 -162q0 -143 -334 -543q25 0 74 -2t74 -2q104 0 204 23v-107q-47 0 -140 6t-140 6q-27 0 -279 -12zM231 1124 q0 -158 99 -157q63 0 108 61q41 55 41 123q0 137 -121 137q-127 0 -127 -164z" />
<glyph unicode="&#xb3;" horiz-adv-x="663" d="M59 649l95 96q86 -125 217 -124q51 0 80 53q20 43 20 100q0 96 -82 131q-51 20 -166 21q82 113 197 284h-332l84 113q37 -12 143 -12q47 0 138.5 6t136.5 6q-47 -94 -217 -297q94 0 161.5 -65.5t67.5 -157.5q0 -59 -80 -159.5t-137 -121.5l-53 -2q-143 -6 -273 129z" />
<glyph unicode="&#xb4;" horiz-adv-x="509" d="M74 1163q166 178 264 312l100 -119l-299 -269z" />
<glyph unicode="&#xb6;" horiz-adv-x="1503" d="M45 1087q0 100 57 199q127 223 244 295q125 78 379 78q317 0 508 -127q225 -150 225 -453q0 -223 -134 -424.5t-343 -287.5v-740h-84v695q-90 -45 -186 -84v-611h-86v578q-68 -23 -209 -60l53 -88l-307 43l207 279l16 -139q158 41 240 73l4 295q-207 0 -387 133 q-197 145 -197 346zM139 1225q0 -188 137 -301q129 -102 320 -99h27v680q-311 -2 -465 -159q-18 -59 -19 -121zM711 348q61 29 186 90v1039l-180 24zM981 483q168 70 281 201q124 147 124 311q0 176 -124 295q-76 72 -281 176v-983z" />
<glyph unicode="&#xb9;" horiz-adv-x="663" d="M133 1077l25 107q186 39 329 180l43 -10q0 -104 -10 -400q-8 -250 -4 -399q-51 -8 -154 -35q0 49 8.5 149.5t8.5 151.5v365q-119 -68 -246 -109z" />
<glyph unicode="&#xbc;" horiz-adv-x="1529" d="M70 1083l24 107q186 37 330 180l43 -12q0 -102 -10 -397q-8 -250 -4 -400q-51 -10 -154 -37q0 49 7 149.5t7 151.5v367q-116 -70 -243 -109zM313 -72l875 1512h129l-877 -1512h-127zM915 147l326 603l152 36v-550h67v-89h-67v-143l-142 -31v174h-336zM1038 236h222v403z " />
<glyph unicode="&#xbd;" horiz-adv-x="1529" d="M63 1083l25 107q186 37 330 180l43 -10q0 -102 -10 -399q-8 -250 -5 -400q-51 -10 -153 -35q0 49 8 149.5t8 149.5v367q-119 -70 -246 -109zM252 -76l874 1512h129l-874 -1512h-129zM897 -6q49 74 160 192q121 127 166 189l-9 2q-41 -18 -81 -19q-88 0 -140 76 q-45 66 -45 158q0 104 67.5 164.5t174.5 60.5q109 0 178 -51q80 -57 80 -162q0 -143 -334 -543q23 0 73 -2t75 -2q102 0 204 23v-107q-47 0 -140 6.5t-140 6.5q-111 0 -279 -13zM1081 578q0 -156 99 -156q63 0 106 61q41 55 41 121q0 139 -119 139q-127 1 -127 -165z" />
<glyph unicode="&#xbe;" horiz-adv-x="1529" d="M53 655l94 97q88 -127 218 -127q51 0 77 55q23 43 23 98q0 98 -80 131q-51 20 -168 21q84 115 197 284h-330l82 113q39 -12 145 -12q47 0 138.5 6t136.5 6q-47 -94 -219 -297q94 0 162.5 -65.5t68.5 -157.5q0 -61 -80 -160q-74 -90 -137 -121l-55 -2q-141 -6 -273 131z M326 -72l876 1512h127l-874 -1512h-129zM928 147l327 603l152 36v-550h68v-89h-68v-143l-141 -31v174h-338zM1053 236h221v403z" />
<glyph unicode="&#xc4;" />
<glyph unicode="&#xc5;" />
<glyph unicode="&#xc6;" horiz-adv-x="2004" d="M-29 6q119 190 486 729q309 453 471 738q938 0 1026 49l12 -13l-141 -131l-637 -12l96 -541h295q137 0 305 41l-104 -155l-482 -23l93 -584q35 0 103.5 -9t104.5 -9q262 0 420 96l15 -12l-129 -197q-246 25 -443 25q-162 0 -309 -25q18 98 18 166q0 117 -30 283 q-27 139 -56 278l-495 -10q-213 -326 -420 -717zM666 795h110q262 0 285 36q0 104 -25 252q-23 127 -45 252z" />
<glyph unicode="&#xc7;" />
<glyph unicode="&#xc9;" />
<glyph unicode="&#xd1;" />
<glyph unicode="&#xd6;" />
<glyph unicode="&#xd7;" horiz-adv-x="1179" d="M131 145l356 373l-356 373l102 106l357 -372l356 372l103 -106l-359 -373l359 -373l-103 -106l-356 375l-357 -375z" />
<glyph unicode="&#xd8;" horiz-adv-x="1640" d="M63 668q0 444 232 645q217 186 676 186q92 0 168 -26l61 139h137q-31 -47 -96 -187q164 -90 251 -247.5t87 -348.5q0 -383 -109 -546q-121 -180 -477 -277q-168 -45 -254 -45q-94 0 -178 23l-104 -220h-150q55 84 139 259q-383 160 -383 645zM268 688q0 -145 68.5 -279.5 t185.5 -226.5l545 1137q-123 80 -221 104q-268 -55 -423 -255.5t-155 -479.5zM621 117q106 -55 206 -56q266 0 416 211q131 186 131 465q0 305 -215 508z" />
<glyph unicode="&#xdc;" />
<glyph unicode="&#xdf;" horiz-adv-x="948" d="M61 -27l17 949q6 256 57 348t266 241q43 10 82 11q131 0 225.5 -84t94.5 -211q0 -66 -72 -176q-55 -82 -110 -166q264 -297 264 -520q0 -115 -124 -253.5t-239 -138.5q-96 1 -172 95l137 102q74 -84 125 -84q55 0 88 55q27 45 27 105q0 104 -84 293q-2 4 -143 284 q145 264 145 307q0 111 -93 189t-206 78q-68 -82 -88 -277q-8 -84 -8 -299v-831z" />
<glyph unicode="&#xe0;" />
<glyph unicode="&#xe1;" />
<glyph unicode="&#xe2;" />
<glyph unicode="&#xe3;" />
<glyph unicode="&#xe4;" />
<glyph unicode="&#xe5;" />
<glyph unicode="&#xe7;" />
<glyph unicode="&#xe8;" />
<glyph unicode="&#xe9;" />
<glyph unicode="&#xea;" />
<glyph unicode="&#xeb;" />
<glyph unicode="&#xec;" />
<glyph unicode="&#xed;" />
<glyph unicode="&#xee;" />
<glyph unicode="&#xef;" />
<glyph unicode="&#xf2;" />
<glyph unicode="&#xf3;" />
<glyph unicode="&#xf4;" />
<glyph unicode="&#xf5;" />
<glyph unicode="&#xf6;" />
<glyph unicode="&#xf9;" />
<glyph unicode="&#xfa;" />
<glyph unicode="&#xfb;" />
<glyph unicode="&#xfc;" />
<glyph unicode="&#x2000;" horiz-adv-x="878" />
<glyph unicode="&#x2001;" horiz-adv-x="1757" />
<glyph unicode="&#x2002;" horiz-adv-x="878" />
<glyph unicode="&#x2003;" horiz-adv-x="1757" />
<glyph unicode="&#x2004;" horiz-adv-x="585" />
<glyph unicode="&#x2005;" horiz-adv-x="439" />
<glyph unicode="&#x2006;" horiz-adv-x="292" />
<glyph unicode="&#x2007;" horiz-adv-x="292" />
<glyph unicode="&#x2008;" horiz-adv-x="219" />
<glyph unicode="&#x2009;" horiz-adv-x="351" />
<glyph unicode="&#x200a;" horiz-adv-x="97" />
<glyph unicode="&#x2010;" horiz-adv-x="581" d="M23 403q57 82 102 170q86 -6 217 -2q188 6 217 7q-66 -80 -113 -175q-278 0 -405 -18z" />
<glyph unicode="&#x2011;" horiz-adv-x="581" d="M23 403q57 82 102 170q86 -6 217 -2q188 6 217 7q-66 -80 -113 -175q-278 0 -405 -18z" />
<glyph unicode="&#x2012;" horiz-adv-x="581" d="M23 403q57 82 102 170q86 -6 217 -2q188 6 217 7q-66 -80 -113 -175q-278 0 -405 -18z" />
<glyph unicode="&#x2013;" horiz-adv-x="1069" d="M23 403q109 82 195 170q164 -6 414 -2q360 6 415 7q-126 -80 -216 -175q-531 0 -774 -18z" />
<glyph unicode="&#x2014;" horiz-adv-x="2093" d="M23 403q218 82 390 170q328 -6 829 -2q718 6 829 7q-252 -80 -432 -175q-1062 0 -1547 -18z" />
<glyph unicode="&#x2018;" horiz-adv-x="509" d="M190 1065v410h132v-410h-132z" />
<glyph unicode="&#x2019;" horiz-adv-x="509" d="M190 1065v410h132v-410h-132z" />
<glyph unicode="&#x201c;" horiz-adv-x="657" d="M123 1065v410h133v-410h-133zM403 1065v410h134v-410h-134z" />
<glyph unicode="&#x201d;" horiz-adv-x="657" d="M123 1065v410h133v-410h-133zM403 1065v410h134v-410h-134z" />
<glyph unicode="&#x2022;" horiz-adv-x="720" d="M74 924l286 209l287 -209l-108 -338h-357z" />
<glyph unicode="&#x202f;" horiz-adv-x="351" />
<glyph unicode="&#x205f;" horiz-adv-x="439" />
<glyph unicode="&#x2122;" horiz-adv-x="1964" d="M123 1354v125h657v-125h-256v-736h-145v736h-256zM924 618v861h223l237 -635l234 635h223v-861h-143v701l-264 -701h-101l-260 701l-6 -701h-143z" />
<glyph unicode="&#x25fc;" horiz-adv-x="1003" d="M0 0v1004h1004v-1004h-1004z" />
</font>
</defs>
</svg>
