<?xml version="1.0" standalone="no"?>
<!DOCTYPE svg PUBLIC "-//W3C//DTD SVG 20010904//EN"
 "http://www.w3.org/TR/2001/REC-SVG-20010904/DTD/svg10.dtd">
<svg version="1.0" xmlns="http://www.w3.org/2000/svg"
 width="400.000000pt" height="400.000000pt" viewBox="0 0 400.000000 400.000000"
 preserveAspectRatio="xMidYMid meet">
<metadata>
Created by potrace 1.11, written by Peter Selinger 2001-2013
</metadata>
<g transform="translate(0.000000,400.000000) scale(0.100000,-0.100000)"
fill="#000000" stroke="none">
<path d="M1940 3525 c-8 -10 -31 -15 -66 -15 -146 0 -264 -104 -264 -233 0
-25 -6 -39 -24 -50 -30 -20 -56 -75 -56 -119 0 -35 -22 -64 -67 -87 -12 -6
-54 -11 -93 -11 -39 0 -81 -5 -93 -11 -32 -16 -77 -61 -77 -75 0 -27 -42 -108
-67 -130 -14 -12 -40 -24 -59 -27 -103 -17 -149 -68 -163 -185 -13 -101 -20
-115 -74 -147 -56 -32 -88 -66 -104 -113 -11 -32 -10 -47 4 -102 21 -82 13
-124 -32 -175 -81 -91 -83 -141 -13 -254 28 -45 37 -107 19 -127 -22 -23 -42
-108 -35 -152 6 -38 16 -54 70 -106 69 -69 81 -100 66 -176 -6 -33 -5 -57 5
-85 14 -41 59 -95 78 -95 17 0 76 -30 98 -49 23 -19 47 -75 47 -108 0 -13 4
-32 10 -42 5 -10 11 -70 12 -132 5 -164 23 -184 203 -228 89 -21 99 -22 830
-19 l740 3 83 24 c55 16 95 35 120 56 l37 33 3 193 c4 223 1 215 98 260 92 42
109 71 109 189 0 107 5 120 68 176 25 21 50 49 56 62 19 36 15 122 -8 169 -29
58 -27 100 8 156 66 103 64 161 -10 246 -59 67 -66 116 -28 193 11 21 -6 103
-27 135 -7 12 -41 40 -74 63 -52 35 -61 47 -74 91 -9 28 -15 54 -15 57 5 36
-5 85 -23 112 -27 38 -97 80 -134 80 -31 0 -84 35 -84 56 0 8 -4 14 -8 14 -4
0 -14 20 -21 45 -27 93 -74 125 -183 125 -85 0 -119 16 -164 77 -40 53 -47 59
-71 67 -28 9 -31 -4 -34 -121 -3 -92 6 -123 36 -123 17 0 153 -71 211 -110
122 -83 266 -234 340 -355 41 -69 94 -180 94 -199 0 -9 4 -16 9 -16 5 0 11
-12 14 -27 2 -16 11 -53 19 -83 52 -192 49 -410 -6 -615 -9 -33 -20 -69 -25
-80 -5 -11 -18 -41 -30 -67 -12 -26 -21 -52 -21 -58 0 -5 -3 -10 -8 -10 -4 0
-15 -17 -24 -37 -18 -43 -74 -123 -86 -123 -4 0 -13 4 -21 9 -12 8 -10 17 14
53 83 125 139 254 171 393 14 60 18 120 18 240 0 140 -4 173 -27 263 -15 56
-39 130 -53 165 -104 248 -311 464 -549 574 l-70 32 -12 -22 c-8 -17 -9 -24 0
-29 7 -5 1 -8 -14 -8 -27 0 -42 19 -34 43 2 6 9 64 15 127 6 63 12 129 14 147
3 26 0 32 -20 37 -13 4 -24 13 -24 21 0 8 -7 15 -15 15 -8 0 -15 4 -15 9 0 5
13 5 29 -2 42 -16 112 7 156 51 31 31 35 40 29 71 -3 20 -16 50 -28 68 -27 42
-111 84 -170 86 -40 1 -50 6 -72 34 l-25 33 -163 0 c-133 0 -166 -3 -176 -15z
m140 -65 c44 -23 70 -67 66 -111 -5 -47 -15 -68 -38 -80 -15 -8 -19 -8 -14 0
27 44 10 118 -35 153 -17 13 -37 29 -44 36 -8 6 -21 12 -30 12 -9 0 -13 5 -10
11 8 13 57 3 105 -21z m292 -52 c17 -33 17 -100 -2 -118 -43 -42 -55 -48 -80
-38 l-25 11 25 6 c25 7 61 57 62 88 0 10 -2 30 -5 46 -7 33 8 36 25 5z m-588
-129 c14 -7 30 -25 36 -42 15 -44 13 -45 -19 -7 -26 31 -34 35 -80 36 -28 0
-54 4 -58 9 -5 4 -3 6 2 2 6 -3 17 -2 25 4 20 12 64 11 94 -2z m613 -45 c-3
-3 -12 -4 -19 -1 -8 3 -5 6 6 6 11 1 17 -2 13 -5z m-640 -329 c-3 -7 -18 -16
-34 -19 -48 -12 -156 -58 -195 -83 -21 -13 -38 -20 -38 -16 0 5 -4 4 -8 -2 -4
-5 -33 -28 -65 -49 -131 -88 -281 -260 -352 -404 -88 -177 -118 -312 -118
-517 0 -130 4 -164 27 -254 34 -134 75 -230 142 -337 50 -80 53 -88 37 -100
-10 -7 -21 -14 -25 -14 -12 0 -102 139 -135 210 -73 155 -102 280 -110 475 -5
128 3 206 33 320 7 28 16 61 19 75 8 31 15 47 55 135 83 184 234 360 403 473
72 48 235 132 256 132 6 0 19 4 29 9 9 5 31 13 47 18 27 8 30 6 33 -15 2 -13
1 -29 -1 -37z m-177 -275 c-6 -11 -23 -28 -38 -37 -57 -35 -158 -131 -214
-201 -70 -88 -139 -227 -169 -337 -30 -111 -33 -336 -5 -445 25 -96 66 -195
113 -273 41 -68 43 -71 93 -124 25 -27 31 -38 20 -41 -16 -6 -52 34 -112 122
-128 186 -185 434 -152 657 32 212 126 398 276 545 57 56 180 152 196 154 1 0
-2 -9 -8 -20z m1021 -31 c16 -11 27 -25 24 -30 -4 -5 0 -6 7 -4 16 6 126 -100
187 -179 89 -115 160 -299 181 -469 29 -238 -60 -525 -220 -709 -58 -67 -64
-42 -7 29 88 111 144 226 188 388 21 76 18 332 -5 415 -25 93 -83 226 -129
295 -45 68 -214 240 -246 250 -12 3 -21 13 -21 21 0 19 7 18 41 -7z m-1037
-79 c-2 -60 12 -112 43 -158 12 -19 25 -42 28 -53 11 -35 28 -21 22 19 -3 20
0 50 6 65 11 25 12 19 13 -55 0 -66 7 -102 32 -176 30 -88 34 -142 11 -142 -5
0 -9 -4 -9 -10 0 -14 43 -13 58 2 7 7 12 8 12 2 0 -6 -9 -19 -20 -29 -11 -10
-17 -21 -15 -25 3 -5 40 -12 83 -15 52 -5 86 -14 105 -28 16 -11 49 -22 73
-25 35 -4 44 -9 44 -24 0 -24 -64 -88 -88 -88 -31 0 -85 -26 -108 -52 -31 -34
-55 -93 -71 -172 -16 -78 -33 -106 -50 -84 -25 31 -123 233 -123 252 0 13 -23
44 -55 76 -45 45 -57 52 -65 40 -6 -10 -4 -22 6 -38 31 -47 6 -49 -118 -7 -57
19 -69 21 -79 9 -9 -11 -8 -19 7 -35 11 -12 18 -29 16 -38 -5 -29 32 -51 109
-64 65 -12 119 -30 119 -41 0 -2 22 -66 49 -142 85 -240 113 -279 169 -237 25
19 111 174 112 201 0 26 20 10 29 -25 12 -43 14 -96 5 -140 -5 -24 -14 -33
-42 -41 -38 -12 -289 -55 -379 -66 l-52 -7 -63 74 c-229 268 -279 640 -128
955 47 98 82 150 152 228 38 41 154 144 163 144 0 0 0 -23 -1 -50z m1153 -104
c104 -113 159 -215 205 -384 33 -120 31 -305 -5 -435 -34 -123 -101 -255 -175
-344 -77 -91 -53 -90 -412 -23 -63 11 -118 26 -122 33 -4 7 -8 8 -8 2 0 -5 -5
-4 -11 2 -14 14 -20 50 -20 114 1 42 -2 48 -25 53 -31 8 -27 30 7 31 40 2 89
16 89 26 0 6 4 8 9 5 5 -4 15 7 22 22 l12 28 33 -65 c17 -36 47 -102 65 -146
17 -44 36 -86 42 -93 22 -28 88 -4 116 42 19 31 26 66 36 186 12 130 24 231
30 240 3 5 33 14 66 21 35 7 73 22 89 35 42 36 52 124 14 124 -8 0 -17 -14
-21 -30 -5 -29 -23 -52 -23 -32 0 20 -33 21 -69 3 -20 -11 -48 -22 -64 -26
-34 -7 -53 -46 -99 -198 -35 -117 -38 -118 -64 -21 -8 31 -26 80 -40 109 -22
49 -31 57 -90 85 -35 16 -69 30 -74 30 -5 0 -15 9 -22 20 -7 11 -18 20 -25 20
-9 0 -13 17 -13 51 l0 50 58 25 c224 97 320 184 358 326 15 60 18 151 5 176
-4 9 -11 30 -15 46 l-7 28 40 -31 c22 -17 70 -65 108 -105z m-600 -68 c-3 -8
-6 -5 -6 6 -1 11 2 17 5 13 3 -3 4 -12 1 -19z m-104 -265 c-13 -2 -33 -2 -45
0 -13 2 -3 4 22 4 25 0 35 -2 23 -4z m144 -395 c-3 -8 -6 -5 -6 6 -1 11 2 17
5 13 3 -3 4 -12 1 -19z"/>
<path d="M2636 1525 c-3 -8 -1 -15 4 -15 6 0 10 7 10 15 0 8 -2 15 -4 15 -2 0
-6 -7 -10 -15z"/>
</g>
</svg>
